Coordinates
version=1
nRows=9
nColumns=36
inDegrees=yes

Units are S.I. units (second, meters, Newtons, ...)
If the header above contains a line with 'inDegrees', this indicates whether rotational values are in degrees (yes) or radians (no).

endheader
time	pelvis_tilt	pelvis_list	pelvis_rotation	pelvis_tx	pelvis_ty	pelvis_tz	hip_flexion_r	hip_adduction_r	hip_rotation_r	knee_angle_r	knee_angle_r_beta	ankle_angle_r	subtalar_angle_r	mtp_angle_r	hip_flexion_l	hip_adduction_l	hip_rotation_l	knee_angle_l	knee_angle_l_beta	ankle_angle_l	subtalar_angle_l	mtp_angle_l	lumbar_extension	lumbar_bending	lumbar_rotation	arm_flex_r	arm_add_r	arm_rot_r	elbow_flex_r	pro_sup_r	arm_flex_l	arm_add_l	arm_rot_l	elbow_flex_l	pro_sup_l
      2.91250000	    -14.86982395	     -0.34257476	      0.68195888	      0.18095707	      0.59546871	     -0.06466689	     84.57991365	     -4.65528943	      4.82642334	    107.89506068	      1.88312406	     37.57477763	     -8.22886422	     -7.49999987	     86.88935623	     -6.65666181	      5.63894911	    111.64874880	      1.94863827	     32.74834259	      1.02183297	     -7.49999987	    -56.49872416	      0.42276420	      1.89445145	     70.05987672	    -26.71914199	     27.03685846	     72.61223385	    102.45807021	     72.96808578	    -23.71450791	     30.90111207	     66.49220223	     89.35876569
      2.91666670	    -14.94147224	     -0.27139504	      0.68057267	      0.18141860	      0.59775896	     -0.06603121	     84.52188095	     -4.65357872	      5.05584192	    107.75031190	      1.88059771	     37.36791464	     -8.37079137	     -7.49999987	     86.81134897	     -6.41490026	      5.55808876	    111.46347592	      1.94540465	     32.71236372	      0.89705039	     -7.49999987	    -56.58364306	      0.51756356	      1.83749639	     70.20335475	    -26.58987399	     27.29007016	     72.31619208	    100.84842884	     72.98939726	    -23.62726353	     31.05550424	     66.16031117	     88.34516517
      2.92083330	    -15.14259376	     -0.26202866	      0.57786275	      0.18273197	      0.59506415	     -0.06514397	     84.62570630	     -4.50810108	      5.22601491	    107.76263949	      1.88081287	     37.37678896	     -8.41446858	     -7.49999987	     86.92868862	     -6.34543485	      5.57895013	    111.50483452	      1.94612649	     32.88898715	      0.73261023	     -7.49999987	    -56.48690047	      0.52292647	      1.87587403	     70.31557012	    -26.52313483	     27.56616369	     71.96123699	     99.63867353	     72.98487978	    -23.50713034	     31.26496865	     65.88668900	     87.41365524
      2.92500000	    -14.98664271	     -0.21616181	      0.54118524	      0.18047513	      0.59656776	     -0.06538600	     84.47964229	     -4.40003814	      5.44225539	    107.64179818	      1.87870379	     37.20078348	     -8.68075628	     -7.49999987	     86.72442548	     -6.09965583	      5.55181834	    111.45312807	      1.94522405	     32.51607600	      0.05925611	     -7.49999987	    -56.90775865	      0.48857487	      1.79362024	     70.42514261	    -26.40940563	     27.42029294	     71.87686132	     97.73744388	     73.06272028	    -23.42853082	     31.10815704	     66.06768138	     85.91550999
      2.92916670	    -15.36305053	     -0.28831768	      0.43821944	      0.18065059	      0.59335895	     -0.06756569	     85.06302263	     -4.34514792	      5.51630928	    107.77265494	      1.88098767	     37.17221888	     -8.40404101	     -7.49999987	     87.35431063	     -5.94704246	      5.71019750	    111.68847124	      1.94933156	     32.87587202	      0.22251031	     -7.49999987	    -56.46999161	      0.61138947	      1.87121742	     70.64075798	    -26.36417425	     28.14331141	     71.23467132	     96.93994765	     73.13065809	    -23.34031477	     31.81871073	     65.30607410	     85.11165500
      2.93333330	    -15.43926446	     -0.30071767	      0.38378571	      0.18466103	      0.59643866	     -0.06662416	     85.07615915	     -4.20193528	      5.62272967	    107.75930448	      1.88075466	     37.11215532	     -8.41461471	     -7.49999987	     87.23098757	     -5.87282573	      5.77661552	    111.64942149	      1.94865001	     32.85248179	      0.18786584	     -7.49999987	    -56.54141260	      0.67142945	      1.87286976	     70.63443378	    -26.33017890	     28.18169257	     71.19460998	     96.97312828	     73.11135169	    -23.26486268	     31.87308786	     65.27307391	     85.14011447
      2.93750000	    -15.38304409	     -0.26735945	      0.32224060	      0.18645515	      0.59536969	     -0.06822804	     84.87207314	     -4.06117843	      5.76130708	    107.76983033	      1.88093837	     36.99755923	     -8.61852696	     -7.49999987	     86.94511386	     -5.81301577	      5.67198256	    111.65383319	      1.94872701	     32.75289471	     -0.10256006	     -7.49999987	    -56.65534645	      0.71881201	      1.85514060	     70.64774070	    -26.26306361	     28.18707329	     71.09070331	     96.41139772	     73.03826228	    -23.14374278	     31.90016600	     65.26029610	     84.69047502
      2.94166670	    -15.36773583	     -0.11565697	      0.16649413	      0.18600387	      0.59669053	     -0.06913669	     84.76015993	     -3.76210365	      6.14981780	    107.66029862	      1.87902668	     36.47183596	     -9.24076983	     -7.49999987	     86.63093937	     -5.77682739	      5.36976408	    111.54403113	      1.94681060	     33.00143285	     -0.30486331	     -7.49999987	    -56.46151185	      0.60032169	      1.81405371	     70.98505063	    -26.19080562	     29.31574994	     69.73893835	     96.71528183	     73.32557259	    -22.75972050	     32.82690335	     63.54198433	     84.98605836
      2.94583330	    -15.24878066	     -0.14978267	      0.14455669	      0.18532396	      0.59761155	     -0.06954545	     84.58872772	     -3.62020818	      6.41324409	    107.54267600	      1.87697378	     36.40170942	     -9.29596177	     -7.49999987	     86.33505244	     -5.59373995	      5.35966652	    111.43279251	      1.94486912	     32.93159832	     -0.59074403	     -7.49999987	    -56.62704591	      0.71779883	      1.82859392	     70.95511128	    -26.14970034	     29.23934603	     69.72457441	     96.08383272	     73.21366582	    -22.69528540	     32.78959622	     63.66723928	     84.46020617
